# xmcd
#
# Track frame offsets:
#	150
#	10970
#	25332
#	43676
#	63361
#	83528
#	95404
#	110631
#	121277
#	142844
#	160217
#	173816
#	187488
#
# Disc length: 2655 seconds
# Revision: 2
# Processed by: cddbd v1.5.2PL0 Copyright (c) Steve Scherf et al.
# Submitted via: dBpowerAMP V12.0
#
DISCID=aa0a5d0d
DTITLE=Markus Rill - Bag Of Tricks
DYEAR=2008
DGENRE=Country
TTITLE0=Kill Will
TTITLE1=Can't Help Falling In Love
TTITLE2=Ghost Riders In The Sky
TTITLE3=If I Where A Carpenter
TTITLE4=Not Dark Yet
TTITLE5=Brown-Eyed Handsome Man
TTITLE6=I Still Miss Someone
TTITLE7=Guitar Town
TTITLE8=Tender Mercies
TTITLE9=Nadine
TTITLE10=Don't Think Twice
TTITLE11=Fade Away
TTITLE12=Six Days On The Road
EXTD=
EXTT0=
EXTT1=
EXTT2=
EXTT3=
EXTT4=
EXTT5=
EXTT6=
EXTT7=
EXTT8=
EXTT9=
EXTT10=
EXTT11=
EXTT12=
PLAYORDER=
